. 
  
http://www.torrenting.com/        :     Greatest Movie Tracker on The Net!!!
 
http://www.Torrenting.com          :     Once & For all ;)


               www . Torrenting . Com 

(((((((((((((= Enjoy No RAR releases =))))))))))))))))))))


...................................NFO:....................................

.








































          
          
              
              
                    
                    
                    
                    

Bad.Teacher.2011.R5.LINE.Xvid-SiC

Poster:
[img]http://img215.imageshack.us/img215/3154/badteacherposter31011kc.jpg[/img]


IMDB Link:
http://www.imdb.com/title/tt1284575/

Description:
A comedy centered around a foul-mouthed, junior high teacher who, after being 
dumped by her sugar daddy, begins to woo a colleague -- a move that pits her 
against a well-loved teacher.
 
MediaInfo:
General
Complete name                    : Bad.Teacher.2011.R5.LINE.Xvid-SiC.avi
Format                           : AVI
Format/Info                      : Audio Video Interleave
File size                        : 1.09 GiB
Duration                         : 1h 28mn
Overall bit rate                 : 1 774 Kbps

Video
ID                               : 0
Format                           : MPEG-4 Visual
Format profile                   : Advanced Simple@L5
Format settings, BVOP            : Yes
Format settings, QPel            : No
Format settings, GMC             : No warppoints
Format settings, Matrix          : Default (H.263)
Muxing mode                      : Packed bitstream
Codec ID                         : XVID
Codec ID/Hint                    : XviD
Duration                         : 1h 28mn
Bit rate                         : 1 640 Kbps
Width                            : 720 pixels
Height                           : 384 pixels
Display aspect ratio             : 1.875
Frame rate                       : 25.000 fps
Resolution                       : 8 bits
Colorimetry                      : 4:2:0
Scan type                        : Progressive
Bits/(Pixel*Frame)               : 0.237
Stream size                      : 1.01 GiB (92%)
Writing library                  : XviD 64

Audio
ID                               : 1
Format                           : MPEG Audio
Format version                   : Version 1
Format profile                   : Layer 3
Mode                             : Joint stereo
Format_Settings_ModeExtension    : MS Stereo
Codec ID                         : 55
Codec ID/Hint                    : MP3
Duration                         : 1h 28mn
Bit rate mode                    : Constant
Bit rate                         : 128 Kbps
Channel(s)                       : 2 channels
Sampling rate                    : 44.1 KHz
Stream size                      : 80.8 MiB (7%)
Alignment                        : Aligned on interleaves
Interleave, duration             : 160 ms (4.00 video frames)
Interleave, preload duration     : 208 ms
Title                            : 2ch English

Screenshots:
[img]http://img27.imageshack.us/img27/7114/badteacher2011r5linexvi.png[/img]
[img]http://img845.imageshack.us/img845/7114/badteacher2011r5linexvi.png[/img]
[img]http://img15.imageshack.us/img15/9852/vlcsnap2011080400h37m22.png[/img]
[img]http://img20.imageshack.us/img20/2817/vlcsnap2011080400h36m53.png[/img]
[img]http://img607.imageshack.us/img607/9485/vlcsnap2011080400h36m47.png[/img]

Note :   N/A 

Encoder: Bezauk

Source : Russian DVDR 

Audio Source : IMAGINE Thanks!!!

Enjoy!

Respects to CaptainHomey, Cyanide, CM8, Rx, THC, ELEKTRI4KA, 
Killerhz, PA, YeFsTe, BoxSlots, MrRep and everyone in the struggle...